<svg width="302" height="300" viewBox="0 0 134 131" fill="none" xmlns="http://www.w3.org/2000/svg">
<path d="M112.001 69.4622C112.001 97.0764 89.615 119.462 62.0008 119.462C34.3865 119.462 12.0008 97.0764 12.0008 69.4622C12.0008 41.848 34.3865 19.4623 62.0008 19.4623C89.615 19.4623 112.001 41.848 112.001 69.4622Z" fill="#FDB45A"/>
<path d="M115.001 69.5432C115.001 97.1574 114.615 117.044 87.0006 117.044C59.3864 117.044 55.5 146.658 55.5 119.044C55.5 91.4294 55.3862 83.5433 83.0004 83.5433C110.615 83.5433 115.001 41.929 115.001 69.5432Z" fill="#9C5300"/>
<path d="M67.5 9.46235C67.5 37.0766 67.1142 56.9624 39.5 56.9624C11.8858 56.9624 8.00001 86.5766 8.00001 58.9624C8.00001 31.3481 7.88577 23.4624 35.5 23.4624C63.1142 23.4624 67.5 -18.1519 67.5 9.46235Z" fill="#9C5300"/>
<path d="M61.419 119.802C33.8173 118.97 12.1162 95.9201 12.9483 68.3184C13.7804 40.7167 36.8307 19.0157 64.4324 19.8478C92.0341 20.68 113.735 43.7301 112.903 71.3318C112.071 98.9335 89.0207 120.635 61.419 119.802Z" fill="#FDB45A"/>
<path d="M61.2477 122.799C33.646 121.967 13.7805 120.982 14.6126 93.3798C15.4447 65.7781 -14.039 61.0011 13.5627 61.8333C41.1644 62.6654 49.0503 62.7892 48.2182 90.3909C47.3861 117.993 88.8494 123.631 61.2477 122.799Z" fill="#9C5300"/>
<path d="M122.733 77.1299C95.1309 76.2978 75.2658 75.313 76.0979 47.7113C76.93 20.1096 47.4463 15.3332 75.048 16.1653C102.65 16.9974 110.535 17.1209 109.703 44.7226C108.871 72.3243 150.334 77.962 122.733 77.1299Z" fill="#9C5300"/>
<path d="M61.4205 119.752C33.8464 118.921 12.167 95.894 12.9983 68.3199C13.0641 66.1351 13.2694 63.9872 13.6052 61.8846L13.8977 61.8934C20.647 62.0967 26.2031 62.2641 30.7331 62.8146C35.3383 63.3742 38.8762 64.329 41.5252 66.115C46.818 69.6834 48.5843 76.5868 48.1682 90.3894C47.7513 104.219 57.9308 112.542 64.7429 117.298C65.5183 117.84 66.2492 118.334 66.916 118.786C67.2998 119.045 67.6625 119.291 68.0002 119.522C65.8428 119.74 63.6465 119.82 61.4205 119.752ZM13.6212 61.785C17.5612 37.4306 39.0254 19.1766 64.3411 19.8952C64.6732 20.3234 65.0637 20.7934 65.4961 21.3078C65.6011 21.4326 65.7085 21.5601 65.8183 21.6904C69.7 26.2965 76.452 34.3083 76.0479 47.7098C75.8397 54.6158 76.926 59.8623 79.1082 63.8593C81.2908 67.8572 84.5675 70.6008 88.7318 72.5046C92.895 74.4081 97.9458 75.4725 103.679 76.1134C106.433 76.4212 109.345 76.6314 112.392 76.7897C109.223 99.5017 90.8596 117.146 68.1538 119.507C67.7879 119.255 67.3914 118.987 66.9696 118.701C66.3025 118.25 65.5722 117.756 64.8001 117.216C57.9891 112.461 47.8529 104.165 48.2682 90.3924C48.6842 76.5934 46.9236 69.634 41.5811 66.032C38.9124 64.2328 35.3555 63.2755 30.7452 62.7153C26.2106 62.1643 20.6506 61.9968 13.9046 61.7935L13.6212 61.785ZM65.5727 21.2434C65.1612 20.7539 64.7895 20.3068 64.4709 19.899C92.0259 20.7514 113.684 43.7695 112.853 71.3303C112.798 73.1441 112.648 74.9323 112.406 76.6903C109.357 76.532 106.444 76.3218 103.69 76.014C97.9614 75.3736 92.9226 74.3107 88.7734 72.4137C84.6252 70.5172 81.3665 67.7872 79.1959 63.8114C77.0249 59.8348 75.94 54.6076 76.1479 47.7128C76.5531 34.2728 69.7797 26.2357 65.896 21.6274C65.7858 21.4966 65.6779 21.3687 65.5727 21.2434ZM68.1275 119.61C68.4447 119.828 68.7386 120.034 69.0059 120.229C69.5391 120.616 69.9632 120.953 70.2533 121.246C70.3983 121.392 70.5084 121.525 70.5818 121.647C70.6554 121.768 70.6901 121.874 70.6892 121.967C70.6877 122.145 70.5522 122.304 70.2057 122.435C69.8614 122.567 69.3279 122.663 68.5741 122.727C67.0679 122.856 64.6995 122.853 61.2492 122.749C54.3484 122.541 47.9335 122.323 42.205 121.683C36.4763 121.042 31.4375 119.979 27.2882 118.082C23.14 116.186 19.8813 113.456 17.7107 109.48C15.5396 105.503 14.4547 100.276 14.6626 93.3814C15.0678 79.9415 8.29454 71.9043 4.41075 67.2958C4.30055 67.165 4.19267 67.037 4.08734 66.9117C3.13184 65.775 2.39131 64.8669 2.02931 64.1488C1.84845 63.79 1.76563 63.4852 1.79282 63.2271C1.81966 62.9722 1.95459 62.7552 2.22727 62.5713C2.50189 62.3862 2.91464 62.236 3.4913 62.1193C4.06723 62.0026 4.8028 61.9201 5.72012 61.8677C7.54468 61.7635 10.083 61.779 13.5044 61.8815C13.1691 63.9842 12.9642 66.1321 12.8983 68.3169C12.0653 95.9462 33.7882 119.019 61.4175 119.852C63.6882 119.921 65.9282 119.837 68.1275 119.61ZM64.3913 19.7966C64.008 19.3001 63.7076 18.8634 63.5146 18.4807C63.3338 18.1219 63.2509 17.8171 63.2781 17.559C63.305 17.3041 63.4399 17.0871 63.7126 16.9033C63.9872 16.7182 64.3999 16.568 64.9766 16.4513C65.5525 16.3346 66.2881 16.2521 67.2054 16.1997C69.0401 16.095 71.5965 16.1113 75.0465 16.2153L75.3843 16.2255C82.133 16.4288 87.6887 16.5962 92.2184 17.1466C96.8236 17.7061 100.361 18.6609 103.01 20.4468C108.303 24.0151 110.069 30.9184 109.653 44.7211C109.236 58.5503 119.416 66.8739 126.228 71.6299C127.003 72.1713 127.734 72.6658 128.401 73.1171C129.201 73.6584 129.909 74.1373 130.491 74.5599C131.024 74.9471 131.448 75.2846 131.738 75.5769C131.883 75.723 131.993 75.8565 132.067 75.9778C132.14 76.0994 132.175 76.2057 132.174 76.2984C132.173 76.4763 132.037 76.6348 131.691 76.7667C131.346 76.8978 130.813 76.9945 130.059 77.0586C128.553 77.1867 126.184 77.1839 122.734 77.0799C119.187 76.973 115.769 76.8636 112.506 76.6955C112.748 74.9367 112.898 73.1478 112.953 71.3333C113.786 43.704 92.0632 20.6308 64.4339 19.7979C64.4197 19.7974 64.4055 19.797 64.3913 19.7966Z" stroke="#C8D9F5" stroke-width="0.1"/>
<path d="M68.5126 91.7859L70.9639 76.9117L54.4178 70.3671L51.9666 92.9758L68.5126 91.7859Z" fill="#C29674"/>
<path d="M85.1419 113.768C83.7214 114.44 82.2737 115.047 80.8045 115.586C77.8658 116.665 74.8325 117.48 71.7208 118.024C68.6794 118.557 65.5567 118.828 62.4341 118.828C58.2156 118.828 54.0215 118.336 49.9654 117.364C48.3771 116.986 46.7751 116.524 45.2003 115.985C45.0353 115.927 44.8675 115.87 44.7024 115.812C42.7488 115.123 40.8276 114.317 38.9795 113.405C38.7305 113.284 38.4816 113.161 38.2327 113.029C37.9567 112.893 37.6834 112.749 37.4074 112.599C37.0556 112.412 36.7065 112.218 36.3574 112.021C35.1886 111.364 34.0385 110.655 32.9399 109.916L32.8669 109.869C32.8019 109.825 32.737 109.783 32.6748 109.738C32.7153 109.53 32.7532 109.341 32.7884 109.173C32.9237 108.514 33.013 108.151 33.013 108.151L40.4217 93.2923L42.4863 89.1521L43.4929 88.75L51.0965 85.7158H69.6805L75.5442 88.0697C75.5442 88.0697 75.574 88.1774 75.6335 88.385C76.2179 90.421 79.6274 101.98 84.9174 113.29C84.9904 113.447 85.0662 113.607 85.1419 113.768Z" fill="#ECD5C3"/>
<path d="M64.3313 81.6932C73.65 81.6932 81.2043 74.3589 81.2043 65.3117C81.2043 56.2644 73.65 48.9301 64.3313 48.9301C55.0126 48.9301 47.4583 56.2644 47.4583 65.3117C47.4583 74.3589 55.0126 81.6932 64.3313 81.6932Z" fill="#C29674"/>
<path d="M43.5224 88.609L43.4934 88.75L38.3492 112.496L38.3047 112.703L38.233 113.03C37.9562 112.893 37.6832 112.748 37.4083 112.6C37.0559 112.412 36.7074 112.218 36.357 112.021C35.1895 111.365 34.0395 110.654 32.9398 109.917L32.8662 109.868C32.8023 109.825 32.7365 109.782 32.6745 109.739C31.8343 109.169 31.0153 108.575 30.2157 107.962C30.2099 107.959 30.206 107.955 30.2002 107.949C28.7733 106.833 27.3987 105.632 26.0841 104.355C25.2361 103.532 24.421 102.684 23.6407 101.814L23.7588 101.333L23.7705 101.284L23.9176 100.671C25.2264 95.3045 29.6542 91.1861 35.2321 90.1485L42.6435 88.7707L43.5224 88.609Z" fill="#ECD5C3"/>
<path d="M96.0711 106.824C93.8874 108.629 91.5468 110.263 89.0763 111.698C88.8355 111.84 88.5892 111.979 88.343 112.118C87.2932 112.706 86.2243 113.256 85.1419 113.768C83.7214 114.44 82.2737 115.047 80.8045 115.586L80.6908 115.065L74.8812 88.2457L75.6335 88.385L83.1721 89.7878C88.7489 90.8255 93.1785 94.9447 94.4854 100.312L95.9277 106.241L96.0711 106.824Z" fill="#ECD5C3"/>
<path d="M83.762 69.6907C83.3236 71.2774 81.1183 78.368 75.4711 79.8601C74.3617 80.1543 71.7154 80.4932 72.4162 79.8601C72.5758 79.7156 72.7301 79.5738 72.8843 79.4345C79.0131 73.8388 81.5134 70.4185 80.3715 62.8261C79.6463 57.9922 71.3879 53.6024 66.7419 53.1662C64.7828 52.9826 62.2826 53.626 60.632 55.2838C57.9072 58.0158 58.3563 66.4017 56.8465 71.3275C56.4406 72.6461 55.8967 73.718 55.1147 74.3668C54.6276 74.7714 54.3165 74.2565 54.0864 73.4132C53.5967 71.6215 53.4696 68.3404 52.7741 69.2676C50.7637 71.9552 52.6794 75.5174 53.2585 76.8915C53.3775 77.1727 53.4993 77.4431 53.621 77.7007V77.7032C53.6914 77.8502 53.7645 77.9975 53.8348 78.1368V78.1394C55.7668 81.9643 58.0885 83.333 60.1341 85.7158C60.9378 86.6484 61.6981 87.7333 62.3773 89.1836C62.8427 90.1767 63.1783 91.175 63.4083 92.1547C64.5799 97.0674 63.1891 101.531 62.8129 102.745C62.0256 105.272 60.6726 109.614 56.7031 112.065C51.7188 115.144 47.1702 112.431 44.9947 115.355C44.9676 115.389 44.9432 115.423 44.9189 115.457C44.8377 115.575 44.7647 115.693 44.7024 115.812C42.7488 115.123 40.8276 114.317 38.9795 113.405C38.7305 113.284 38.4816 113.161 38.2327 113.029C37.9567 112.893 37.6834 112.749 37.4074 112.599C37.3965 112.394 37.3857 112.189 37.3776 111.981C37.218 108.427 37.4588 104.52 38.3707 100.624C38.9551 98.1367 39.5342 95.6697 40.4217 93.2923C41.0008 91.7424 41.7097 90.229 42.6432 88.7711C43.3901 87.5994 44.2776 86.4619 45.3545 85.369C47.7195 82.9705 49.822 81.9697 50.1548 79.437C50.631 75.8222 46.7535 74.7347 45.3545 69.2676C44.3994 65.5294 43.4009 60.1413 44.3696 56.5106C45.2842 53.0798 46.0798 50.1033 48.7342 47.1871C49.3728 46.4882 54.6141 41.6281 60.6861 40.8295C63.484 40.4644 65.9789 43.9427 69.3612 44.6913C73.2496 45.5505 75.4765 46.0418 77.6521 47.6573C81.3294 50.3842 82.3657 54.4615 83.3263 58.2498C84.0786 61.2132 85.0527 65.0461 83.762 69.6907Z" fill="#1A0E08"/>
</svg>
