<svg width="400" height="400" viewBox="0 0 142 137" fill="none" xmlns="http://www.w3.org/2000/svg">
<path d="M116.132 70.1916C117.371 97.778 96.0127 121.146 68.4263 122.386C40.8399 123.625 17.472 102.266 16.2326 74.6799C14.9931 47.0935 36.3516 23.7256 63.938 22.4862C91.5244 21.2468 114.892 42.6052 116.132 70.1916Z" fill="#FDB45A"/>
<path d="M119.132 70.1379C120.372 97.7243 120.879 117.608 93.2924 118.847C65.706 120.087 63.1527 149.845 61.9133 122.259C60.6739 94.6725 60.2063 86.7996 87.7927 85.5602C115.379 84.3208 117.893 42.5515 119.132 70.1379Z" fill="#9C5300"/>
<path d="M68.9829 12.2495C70.2223 39.8359 70.7295 59.719 43.1431 60.9584C15.5567 62.1978 13.004 91.9566 11.7646 64.3702C10.5252 36.7838 10.0571 28.9111 37.6435 27.6717C65.2299 26.4323 67.7435 -15.3369 68.9829 12.2495Z" fill="#9C5300"/>
<path d="M71.7086 123.105C44.2168 125.703 19.8239 105.523 17.2257 78.0311C14.6274 50.5394 34.8077 26.1466 62.2995 23.5484C89.7912 20.9501 114.184 41.1303 116.782 68.622C119.38 96.1138 99.2003 120.506 71.7086 123.105Z" fill="#FDB45A"/>
<path d="M71.9102 126.099C44.4184 128.697 24.5842 130.184 21.986 102.692C19.3877 75.2008 -10.4608 74.118 17.0309 71.5198C44.5226 68.9215 52.363 68.0662 54.9612 95.558C57.5595 123.05 99.4019 123.501 71.9102 126.099Z" fill="#9C5300"/>
<path d="M127.255 73.156C99.7634 75.7542 79.9295 77.2412 77.3313 49.7495C74.733 22.2578 44.8846 21.1757 72.3763 18.5774C99.868 15.9792 107.708 15.1235 110.306 42.6152C112.905 70.1069 154.747 70.5577 127.255 73.156Z" fill="#9C5300"/>
<path d="M71.7038 123.055C44.2396 125.651 19.8711 105.491 17.2755 78.0264C17.0698 75.8502 17.007 73.6935 17.0794 71.5654L17.3708 71.5379C24.0931 70.9024 29.6271 70.3793 34.1904 70.3636C38.8295 70.3476 42.4585 70.8562 45.3085 72.2997C51.0031 75.184 53.6121 81.815 54.9114 95.5627C56.2132 109.337 67.3466 116.333 74.6961 120.208C75.5327 120.649 76.3193 121.049 77.0369 121.414C77.45 121.624 77.8403 121.823 78.2041 122.011C76.0904 122.494 73.9209 122.845 71.7038 123.055ZM17.0829 71.4647C17.9714 46.8096 37.0055 26.034 62.2148 23.6067C62.5974 23.9904 63.0432 24.4083 63.5361 24.8651C63.6557 24.9759 63.7782 25.0892 63.9032 25.2048C68.3264 29.2938 76.02 36.4061 77.2815 49.7542C77.9316 56.6328 79.6603 61.704 82.3214 65.3994C84.9831 69.0957 88.5749 71.4116 92.9432 72.7842C97.3103 74.1565 102.454 74.5861 108.222 74.5109C110.993 74.4747 113.909 74.3221 116.952 74.1012C116.625 97.0309 100.592 116.817 78.3546 121.976C77.9603 121.771 77.5336 121.554 77.0797 121.323C76.3617 120.958 75.5758 120.558 74.7428 120.119C67.3944 116.246 56.3074 109.271 55.011 95.5533C53.712 81.8092 51.1018 75.1219 45.3537 72.2105C42.4824 70.7562 38.8343 70.2476 34.19 70.2636C29.6222 70.2794 24.0843 70.8028 17.3653 71.438L17.0829 71.4647ZM63.604 24.7917C63.135 24.3571 62.7108 23.9595 62.344 23.5944C89.792 21.022 114.138 41.1758 116.732 68.6267C116.903 70.4333 116.975 72.2264 116.954 74.0008C113.908 74.2219 110.992 74.3747 108.221 74.4109C102.457 74.4861 97.3256 74.0564 92.9731 72.6888C88.6217 71.3215 85.0496 69.0168 82.4026 65.341C79.755 61.6644 78.0301 56.6121 77.3811 49.7448C76.1159 36.3583 68.3979 29.2236 63.9725 25.1326C63.8469 25.0166 63.724 24.903 63.604 24.7917ZM78.3414 122.082C78.6832 122.259 79.0003 122.427 79.2897 122.586C79.8667 122.904 80.3295 123.187 80.6536 123.441C80.8156 123.568 80.9414 123.687 81.0293 123.798C81.1174 123.91 81.165 124.011 81.1757 124.103C81.1962 124.28 81.0814 124.454 80.754 124.627C80.4286 124.8 79.9112 124.962 79.1712 125.119C77.6925 125.434 75.3421 125.725 71.9055 126.049C65.0322 126.699 58.6399 127.279 52.8762 127.354C47.1123 127.429 41.9806 127 37.628 125.632C33.2765 124.264 29.7043 121.96 27.0573 118.284C24.4097 114.607 22.6848 109.555 22.0357 102.688C20.7706 89.3014 13.0527 82.1666 8.62724 78.0754C8.50167 77.9593 8.37874 77.8457 8.25868 77.7344C7.16956 76.725 6.3221 75.9158 5.87382 75.2482C5.64985 74.9146 5.52986 74.6224 5.52481 74.3629C5.51983 74.1066 5.62679 73.8746 5.87456 73.6583C6.1241 73.4405 6.51503 73.2403 7.07275 73.0529C7.62977 72.8658 8.34941 72.6926 9.25315 72.5268C11.0507 72.1971 13.5714 71.8976 16.979 71.5749C16.9071 73.703 16.9702 75.8597 17.1759 78.0358C19.7767 105.555 44.194 125.755 71.7133 123.155C73.9749 122.941 76.1872 122.58 78.3414 122.082ZM62.2523 23.5026C61.8104 23.0575 61.4581 22.6614 61.2192 22.3056C60.9952 21.972 60.8752 21.6799 60.8702 21.4204C60.8652 21.1641 60.9722 20.9321 61.2199 20.7159C61.4695 20.4981 61.8604 20.2979 62.4181 20.1105C62.9751 19.9234 63.6948 19.7502 64.5985 19.5844C66.406 19.2529 68.9447 18.952 72.381 18.6272L72.7174 18.5954C79.4392 17.96 84.9728 17.4369 89.5357 17.4212C94.1748 17.4051 97.8038 17.9137 100.654 19.3572C106.348 22.2414 108.957 28.8723 110.257 42.6199C111.558 56.394 122.692 63.3906 130.041 67.2649C130.878 67.7059 131.664 68.106 132.382 68.471C133.243 68.9089 134.005 69.2963 134.635 69.6435C135.212 69.9615 135.674 70.2438 135.999 70.4978C136.161 70.6248 136.286 70.7436 136.374 70.8549C136.462 70.9665 136.51 71.0676 136.521 71.1596C136.541 71.3364 136.426 71.5105 136.099 71.6844C135.774 71.8572 135.256 72.0192 134.516 72.1764C133.037 72.4904 130.687 72.7814 127.25 73.1062C123.718 73.4401 120.312 73.7555 117.054 73.9935C117.075 72.2184 117.003 70.4245 116.832 68.6173C114.231 41.0981 89.814 20.8977 62.2948 23.4986C62.2806 23.4999 62.2665 23.5013 62.2523 23.5026Z" stroke="#C8D9F5" stroke-width="0.1"/>
<g clip-path="url(#clip0_16_137)">
<path d="M74.8718 95.9832L77.323 81.109L60.777 74.5644L58.3257 97.1731L74.8718 95.9832Z" fill="#C29674"/>
<path d="M79.9999 121C72.9999 123 74.9385 121.635 71.9999 122.714C69.0613 123.794 66.4999 123.071 62.9999 122.714C59.9585 123.247 71.9159 123.025 68.7933 123.025C64.5748 123.025 60.3807 122.534 56.3245 121.561C54.7362 121.183 53.1343 120.721 51.5595 120.182C51.3944 120.125 51.2267 120.067 51.0616 120.009C49.108 119.321 47.1867 118.514 45.3387 117.603C45.0897 117.482 44.8408 117.358 44.5918 117.227C44.3158 117.09 44.0425 116.946 43.7665 116.796C43.4148 116.61 43.0657 116.415 42.7166 116.218C41.5477 115.561 40.3977 114.852 39.2991 114.114L39.226 114.067C39.1611 114.022 39.0962 113.98 39.0339 113.935C39.0745 113.728 39.1124 113.538 39.1476 113.37C39.2828 112.711 39.3722 112.349 39.3722 112.349L46.7809 97.4896L48.8455 93.3494L49.8521 92.9474L57.4557 89.9132H76.0397L81.9033 92.267C81.9033 92.267 81.9331 92.3748 81.9927 92.5823C82.5771 94.6183 85.3869 105.616 89.4999 117.603C81.9927 120.009 86.9999 119 79.9999 121Z" fill="#ECD5C3"/>
<path d="M70.6905 85.8905C80.0092 85.8905 87.5634 78.5563 87.5634 69.509C87.5634 60.4617 80.0092 53.1274 70.6905 53.1274C61.3718 53.1274 53.8175 60.4617 53.8175 69.509C53.8175 78.5563 61.3718 85.8905 70.6905 85.8905Z" fill="#C29674"/>
<path d="M49.8816 92.8064L49.8526 92.9473L44.7084 116.694L44.6639 116.9L44.5922 117.227C44.3153 117.09 44.0424 116.945 43.7674 116.797C43.4151 116.609 43.0666 116.415 42.7161 116.218C41.5487 115.562 40.3986 114.851 39.2989 114.115L39.2254 114.066C39.1615 114.023 39.0957 113.979 39.0337 113.936C38.1934 113.367 37.3745 112.773 36.5749 112.16C36.569 112.156 36.5652 112.152 36.5594 112.147C35.1325 111.03 33.7579 109.829 32.4432 108.553C31.5952 107.729 30.7801 106.882 29.9999 106.011L30.118 105.53L30.1296 105.481L30.2768 104.868C31.5856 99.5018 36.0134 95.3834 41.5913 94.3458L49.0026 92.968L49.8816 92.8064Z" fill="#ECD5C3"/>
<path d="M99.9999 110C97.8162 111.805 98.4999 111.5 95.4999 114C94.4999 114.833 94.0497 115.412 92.9999 116C91.95 116.589 92.0113 116.244 90.4999 117C88.4999 118 88.6329 117.462 87.1636 118L81.2404 92.443L81.9926 92.5823L89.5313 93.9851C95.1081 95.0229 99.5377 99.1421 100.845 104.509L102.43 108L99.9999 110Z" fill="#ECD5C3"/>
<path d="M90.1211 73.888C89.6828 75.4748 87.4775 82.5653 81.8303 84.0574C80.7209 84.3517 78.0745 84.6906 78.7754 84.0574C78.935 83.913 79.0892 83.7711 79.2435 83.6318C85.3723 78.0362 87.8725 74.6158 86.7306 67.0235C86.0054 62.1896 77.7471 57.7997 73.1011 57.3636C71.142 57.1799 68.6418 57.8233 66.9912 59.4811C64.2664 62.2132 64.7155 70.599 63.2057 75.5248C62.7998 76.8435 62.2559 77.9153 61.4739 78.5641C60.9868 78.9687 60.6756 78.4538 60.4456 77.6105C59.9559 75.8188 59.8287 72.5378 59.1333 73.4649C57.1228 76.1526 59.0386 79.7148 59.6177 81.0889C59.7367 81.37 59.8584 81.6404 59.9802 81.898V81.9006C60.0506 82.0476 60.1236 82.1948 60.194 82.3341V82.3367C62.1259 86.1616 64.4476 87.5303 66.4933 89.9132C67.2969 90.8457 68.0573 91.9307 68.7365 93.381C69.2019 94.3741 69.5374 95.3723 69.7674 96.3521C70.9391 101.265 69.5483 105.728 69.1721 106.942C68.3847 109.469 67.0318 113.812 63.0622 116.263C58.0779 119.342 53.5294 116.628 51.3538 119.552C51.3268 119.586 51.3024 119.62 51.2781 119.654C51.1969 119.773 51.1238 119.891 51.0616 120.009C49.1079 119.321 47.1867 118.514 45.3387 117.603C45.0897 117.482 44.8408 117.358 44.5918 117.227C44.3158 117.09 44.0425 116.946 43.7665 116.796C43.7557 116.591 43.7449 116.386 43.7367 116.179C43.5771 112.624 43.8179 108.718 44.7298 104.822C45.3143 102.334 45.8934 99.8671 46.7809 97.4896C47.36 95.9398 48.0689 94.4264 49.0024 92.9684C49.7493 91.7967 50.6367 90.6592 51.7137 89.5663C54.0787 87.1678 56.1812 86.167 56.514 83.6343C56.9902 80.0195 53.1127 78.932 51.7137 73.4649C50.7586 69.7267 49.76 64.3387 50.7288 60.7079C51.6434 57.2771 52.4389 54.3006 55.0934 51.3844C55.732 50.6855 60.9733 45.8255 67.0453 45.0268C69.8432 44.6617 72.338 48.1401 75.7204 48.8887C79.6087 49.7479 81.8357 50.2392 84.0112 51.8547C87.6886 54.5815 88.7249 58.6589 89.6855 62.4471C90.4377 65.4105 91.4119 69.2434 90.1211 73.888Z" fill="#1A0E08"/>
</g>
<path d="M60 122.5L58 122H76L72.5 122.5L67 123H65.5L60 122.5Z" fill="#ECD5C3" stroke="#ECD5C3" stroke-width="0.1"/>
<defs>
<clipPath id="clip0_16_137">
<rect width="103" height="100" fill="white" transform="translate(14.9999 22.0001)"/>
</clipPath>
</defs>
</svg>
