<svg width="51" height="15" viewBox="0 0 51 15" fill="none" xmlns="http://www.w3.org/2000/svg">
<g filter="url(#filter0_i_6_10)">
<path d="M0.660034 13.1473C0.671417 13.1472 0.677 13.1325 0.676783 13.1032C0.670916 13.0798 0.67652 13.068 0.693597 13.0679C0.773499 13.0966 0.861897 13.1193 0.958788 13.1361C1.05568 13.1529 1.18096 13.1607 1.33464 13.1595C1.51678 13.1581 1.71869 13.136 1.94036 13.0932C2.16204 13.0505 2.38925 12.9871 2.622 12.9033C2.85476 12.8194 3.08737 12.715 3.31981 12.5901C3.55225 12.4653 3.7703 12.3171 3.97395 12.1455C4.09838 12.0391 4.24256 11.909 4.40649 11.7554C4.57616 11.6076 4.7343 11.4423 4.88093 11.2595C5.02762 11.0825 5.15147 10.897 5.25248 10.7028C5.35918 10.5086 5.41187 10.3207 5.41052 10.139C5.40986 10.0511 5.37208 9.94598 5.29717 9.82352C5.22227 9.70106 5.13315 9.58163 5.02982 9.46526C4.92646 9.34302 4.82033 9.23253 4.71145 9.13377C4.60822 9.02912 4.52223 8.94776 4.45348 8.88971L4.79307 7.48074C4.92463 7.56759 5.05924 7.6808 5.1969 7.82034C5.3402 7.95398 5.47233 8.117 5.59329 8.30942C5.71426 8.50182 5.79544 8.70335 5.83685 8.91396C5.88391 9.11867 5.90823 9.32649 5.90979 9.53742C5.91263 9.91827 5.86436 10.3171 5.76501 10.7339C5.67133 11.1507 5.49273 11.6267 5.22918 12.162C4.97132 12.6973 4.65855 13.1187 4.29084 13.4263C3.92888 13.7397 3.50599 13.8983 3.02219 13.9021C2.84574 13.9035 2.64922 13.8845 2.43263 13.8452C2.22178 13.8117 2.00794 13.7607 1.79112 13.6921C1.57431 13.6235 1.36595 13.5431 1.16604 13.4509C0.966135 13.3587 0.797465 13.2575 0.660034 13.1473ZM6.20725 12.7959C6.69739 12.8799 7.19291 12.92 7.69379 12.9161C8.45649 12.91 9.11842 12.7495 9.67961 12.4346C10.2465 12.1195 10.7151 11.609 11.0856 10.9029L10.9148 10.9043C10.7554 10.9055 10.5846 10.8952 10.4023 10.8732C10.22 10.857 10.0518 10.8173 9.89764 10.7541C9.74918 10.6908 9.62326 10.598 9.51989 10.4758C9.42222 10.3535 9.37262 10.1898 9.37109 9.98478C9.37044 9.89688 9.38664 9.77957 9.4197 9.63282C9.45842 9.48017 9.50844 9.31863 9.56979 9.14822C9.63679 8.97191 9.71231 8.79552 9.79639 8.61908C9.8861 8.43672 9.97882 8.27486 10.0745 8.13347C10.1759 7.98618 10.2775 7.86819 10.3793 7.7795C10.4867 7.68491 10.5917 7.63719 10.6941 7.6364C10.8193 7.63541 10.9365 7.69893 11.0456 7.82699C11.1604 7.955 11.264 8.10653 11.3564 8.28158C11.4487 8.45078 11.5268 8.62595 11.5908 8.80709C11.6604 8.98233 11.7098 9.12257 11.7391 9.22781L13.0027 9.21786C13.1506 9.21669 13.2594 9.29787 13.3289 9.46139C13.4041 9.61901 13.4424 9.80034 13.444 10.0054C13.4455 10.2105 13.4099 10.3953 13.3371 10.56C13.27 10.7187 13.1624 10.7987 13.0144 10.7998L11.6142 10.8109C11.6148 10.8812 11.6039 10.9545 11.5817 11.0309C11.5653 11.113 11.5431 11.1952 11.5152 11.2775C11.4874 11.3597 11.4567 11.4362 11.423 11.5067C11.3952 11.5831 11.3672 11.6507 11.3392 11.7096C11.2215 11.9566 11.0725 12.2097 10.8923 12.469C10.7121 12.7341 10.509 12.9759 10.2829 13.1945C10.0626 13.4189 9.81921 13.6024 9.55274 13.7452C9.28627 13.8879 9.0079 13.9604 8.71762 13.9627C8.19966 13.9668 7.73226 13.8796 7.31541 13.7013C6.8986 13.5288 6.52921 13.227 6.20725 12.7959ZM10.3701 8.84309C10.3246 8.84343 10.2792 8.86724 10.234 8.91447C10.1888 8.96169 10.1494 9.01767 10.1157 9.0824C10.0821 9.14712 10.0541 9.21473 10.0319 9.28521C10.0153 9.3498 10.0071 9.40553 10.0075 9.4524C10.008 9.52271 10.0284 9.58115 10.0686 9.62771C10.1144 9.66836 10.1687 9.70016 10.2315 9.72311C10.3 9.746 10.3684 9.76011 10.4367 9.76544C10.5108 9.77072 10.5734 9.77315 10.6246 9.77274C10.6531 9.77252 10.6901 9.77223 10.7356 9.77187C10.7812 9.77151 10.8238 9.76824 10.8636 9.76208C10.9091 9.75585 10.946 9.74678 10.9744 9.73482C11.0084 9.71699 11.0253 9.69341 11.0251 9.66411C11.0246 9.59381 11.0041 9.51194 10.9635 9.4185C10.923 9.32507 10.8711 9.23759 10.8079 9.15605C10.7446 9.06866 10.6729 8.99597 10.5928 8.93801C10.5183 8.87414 10.4441 8.8425 10.3701 8.84309ZM13.0112 9.21779L14.2392 7.87214L14.2014 2.78342C14.1613 2.74857 14.1183 2.70789 14.0724 2.66138C14.0265 2.60901 13.9834 2.55662 13.9432 2.50419C13.9029 2.44592 13.8683 2.3876 13.8394 2.32923C13.8105 2.27085 13.7959 2.21238 13.7954 2.15379C13.7949 2.08347 13.8338 1.96011 13.9122 1.78371C13.9905 1.60145 14.0802 1.41617 14.1813 1.22787C14.288 1.03366 14.3949 0.859963 14.5019 0.706772C14.6146 0.547676 14.702 0.453233 14.7645 0.423445C14.7757 0.411637 14.7871 0.414476 14.7986 0.431965L14.8158 0.449407C14.7939 0.566771 14.7776 0.672371 14.767 0.766208C14.7562 0.854186 14.7512 0.947978 14.752 1.04758C14.7528 1.15305 14.7763 1.25541 14.8226 1.35465C14.8688 1.4539 14.9265 1.54719 14.9955 1.63455C15.0701 1.71599 15.1531 1.78565 15.2446 1.84353C15.3418 1.90136 15.4416 1.93866 15.5442 1.95543L15.051 3.36561L14.8538 3.26169L14.8846 7.40121C14.9864 7.31252 15.1109 7.209 15.258 7.09065C15.4051 6.9723 15.5636 6.85092 15.7335 6.72654C15.9033 6.5963 16.0787 6.46893 16.26 6.34445C16.4469 6.21993 16.6282 6.1101 16.8039 6.01496C16.9853 5.91392 17.1583 5.83344 17.323 5.77356C17.4876 5.71367 17.6326 5.68322 17.7578 5.68224C18.2131 5.67864 18.5725 5.78421 18.8359 5.99895C19.0994 6.20781 19.2324 6.49682 19.2352 6.86594C19.2376 7.19991 19.1632 7.53156 19.0119 7.86089C18.8664 8.18432 18.6752 8.48759 18.4381 8.77071C18.2069 9.04794 17.9469 9.29901 17.6582 9.52395C17.3753 9.74885 17.0977 9.92975 16.8255 10.0667C16.4058 10.2692 15.9773 10.4396 15.5401 10.5778C15.1029 10.716 14.6536 10.7869 14.1926 10.7906L12.3485 10.8051C12.2233 10.8061 12.1316 10.7277 12.0735 10.5699C12.0097 10.4064 11.977 10.2221 11.9755 10.017C11.974 9.81192 12.0039 9.63003 12.0653 9.47135C12.121 9.30684 12.2115 9.22409 12.3367 9.2231L13.0112 9.21779ZM13.8479 9.2112C13.8936 9.22841 13.9534 9.23966 14.0275 9.24494C14.1014 9.24435 14.147 9.24399 14.1641 9.24386C14.2779 9.24296 14.4571 9.23276 14.7017 9.21326C14.952 9.18785 15.2277 9.15051 15.5291 9.10127C15.8361 9.04611 16.1516 8.98211 16.4755 8.90924C16.8049 8.83046 17.1031 8.74022 17.3699 8.6385C17.6367 8.53094 17.8548 8.40909 18.0246 8.27298C18.1943 8.13102 18.2785 7.97508 18.2772 7.80516C18.2767 7.71728 18.2475 7.63254 18.1901 7.55096C18.1381 7.46348 18.0607 7.38791 17.9578 7.32426C17.8548 7.25477 17.7292 7.20009 17.5809 7.16024C17.4384 7.12034 17.2759 7.10111 17.0937 7.10255C16.9402 7.10376 16.7668 7.14029 16.5738 7.21212C16.3808 7.28396 16.1794 7.3793 15.9697 7.49814C15.7657 7.61694 15.5589 7.75334 15.3494 7.90733C15.1457 8.05542 14.9475 8.20641 14.7552 8.36027C14.5685 8.51409 14.396 8.66487 14.2377 8.81261C14.0851 8.9603 13.9552 9.09315 13.8479 9.2112ZM22.6535 10.7239C22.3689 10.7261 22.1207 10.649 21.9089 10.4924C21.7028 10.33 21.5277 10.1204 21.3834 9.86375C21.2449 9.60116 21.1316 9.30908 21.0439 8.98749C20.9619 8.66001 20.8967 8.33532 20.8488 8.01342C20.8009 7.68566 20.7672 7.37537 20.748 7.08254C20.7344 6.78968 20.7241 6.54366 20.7169 6.34449L20.599 1.97712L21.31 1.13654L21.3436 5.65398C21.3448 5.81804 21.3578 6.03474 21.3826 6.30408C21.4073 6.56757 21.4435 6.83682 21.4911 7.11185C21.5386 7.38687 21.5947 7.65011 21.6591 7.90157C21.7235 8.14715 21.799 8.33993 21.8854 8.47988C22.0525 8.75396 22.2417 8.93411 22.453 9.02034C22.6641 9.10071 22.8951 9.13991 23.1454 9.13793L23.6748 9.13376C23.7545 9.13313 23.823 9.15603 23.8802 9.20246C23.9432 9.24297 23.9948 9.30117 24.0351 9.37703C24.0812 9.44697 24.1132 9.52875 24.1309 9.62237C24.1545 9.71594 24.1666 9.81545 24.1673 9.92091C24.168 10.0264 24.1574 10.1261 24.1354 10.22C24.1191 10.3139 24.0883 10.3991 24.0433 10.4756C24.0041 10.5462 23.9532 10.6052 23.891 10.6526C23.8343 10.6941 23.7663 10.7151 23.6866 10.7157L22.6535 10.7239ZM25.2714 9.12119C25.2998 9.12096 25.3282 9.10608 25.3563 9.07656C25.3846 9.04118 25.4099 9.0029 25.4324 8.96171C25.4548 8.91465 25.4716 8.86764 25.4825 8.82068C25.4936 8.77371 25.499 8.73558 25.4988 8.70629C25.4985 8.66528 25.4837 8.598 25.4545 8.50448C25.4311 8.40506 25.399 8.30277 25.3584 8.19762C25.3234 8.09243 25.2858 7.99896 25.2453 7.91724C25.2048 7.82967 25.1702 7.77428 25.1415 7.75107L25.6188 6.47286C25.7855 6.6942 25.907 6.95108 25.983 7.24344C26.0593 7.52997 26.0983 7.81677 26.1005 8.10387C26.1021 8.32067 26.081 8.53764 26.0371 8.75478C25.9988 8.97189 25.9377 9.18038 25.8538 9.38027C25.8035 9.50372 25.7248 9.64203 25.6179 9.79523C25.5166 9.94838 25.4009 10.0928 25.2711 10.2286C25.1411 10.3644 25.0025 10.4798 24.8552 10.5747C24.7079 10.6638 24.566 10.7088 24.4293 10.7099L23.1402 10.7201C23.0718 10.7206 23.0119 10.6976 22.9603 10.6512C22.9031 10.6047 22.857 10.5436 22.8224 10.4677C22.7877 10.3918 22.7614 10.307 22.7437 10.2134C22.7257 10.1139 22.7164 10.0115 22.7157 9.90599C22.7142 9.70092 22.747 9.52194 22.8142 9.36906C22.8814 9.21618 22.9861 9.13919 23.1284 9.13806L25.2714 9.12119ZM25.1666 5.37776L24.2719 4.47072L25.1531 3.54968L26.0477 4.45673L25.1666 5.37776ZM31.7978 4.97393C31.8335 5.17874 31.9088 5.351 32.0236 5.49072C32.1385 5.62458 32.2703 5.74659 32.4191 5.85675C32.568 5.96691 32.7225 6.07703 32.8826 6.1871C33.0486 6.29712 33.2004 6.4307 33.3381 6.58782C33.476 6.74493 33.5883 6.93449 33.6754 7.15647C33.7681 7.3784 33.8158 7.65929 33.8182 7.99911C33.8194 8.15732 33.8008 8.33325 33.7624 8.52692C33.7297 8.72054 33.6771 8.91725 33.6046 9.11705C33.5321 9.31098 33.4423 9.50213 33.3356 9.69047C33.2345 9.87876 33.1191 10.0467 32.9893 10.1942C32.8594 10.3358 32.7123 10.4513 32.5479 10.5404C32.3892 10.6296 32.2187 10.6749 32.0366 10.6763C31.6155 10.6796 31.3099 10.559 31.1203 10.3144C30.9306 10.0698 30.8343 9.7424 30.8313 9.33227C30.8299 9.14477 30.8455 8.94542 30.878 8.73422C30.9107 8.52302 30.9574 8.3117 31.0185 8.10029C31.0795 7.88886 31.1492 7.68323 31.2273 7.48338C31.3112 7.28349 31.4038 7.10405 31.5052 6.94505C31.4536 6.89858 31.4217 6.83144 31.4097 6.74364C31.3976 6.65585 31.3914 6.57093 31.3908 6.4889C31.3899 6.37172 31.4003 6.24566 31.4221 6.11072C31.4438 5.97578 31.4712 5.84079 31.5045 5.70576C31.5432 5.57069 31.5878 5.44142 31.6382 5.31797C31.6885 5.18867 31.7417 5.07399 31.7978 4.97393ZM32.0592 9.11165C32.1331 9.11106 32.2383 9.08972 32.3745 9.04763C32.5109 9.00554 32.6442 8.95175 32.7746 8.88627C32.9107 8.82074 33.0269 8.74365 33.123 8.655C33.2248 8.56631 33.2753 8.47509 33.2746 8.38134C33.2743 8.3286 33.2167 8.24409 33.1021 8.12781C32.9929 8.00562 32.8611 7.87775 32.7064 7.7442C32.5574 7.6106 32.4028 7.48584 32.2425 7.36991C32.0824 7.25399 31.9508 7.17884 31.8482 7.1445C31.7803 7.20363 31.7182 7.28322 31.6621 7.38327C31.6059 7.47747 31.5553 7.57748 31.5106 7.6833C31.4715 7.78322 31.4409 7.88015 31.4188 7.97408C31.3968 8.06801 31.386 8.14719 31.3864 8.21165C31.3873 8.32296 31.3995 8.4342 31.4231 8.54535C31.4467 8.65649 31.4843 8.75288 31.5362 8.83451C31.5881 8.91612 31.6569 8.98298 31.7427 9.03503C31.8284 9.08709 31.9339 9.11262 32.0592 9.11165ZM32.8659 3.92837L31.9712 3.02133L32.8523 2.1003L33.7726 3.00714L32.8659 3.92837ZM31.073 3.9425L30.1527 3.03567L31.0593 2.11443L31.9541 3.02147L31.073 3.9425ZM33.4107 12.8892C33.4221 12.8891 33.4276 12.8744 33.4274 12.8451C33.4215 12.8217 33.4272 12.81 33.4442 12.8098C33.5241 12.8385 33.6125 12.8612 33.7094 12.878C33.8063 12.8949 33.9316 12.9027 34.0852 12.9015C34.2673 12.9 34.4693 12.8779 34.6909 12.8352C34.9127 12.7924 35.1399 12.7291 35.3726 12.6452C35.6054 12.5613 35.838 12.457 36.0704 12.3321C36.3028 12.2072 36.521 12.059 36.7245 11.8875C36.849 11.781 36.9932 11.651 37.1571 11.4973C37.3268 11.3495 37.4849 11.1842 37.6316 11.0014C37.7782 10.8244 37.902 10.6389 38.003 10.4447C38.1098 10.2505 38.1624 10.0626 38.1611 9.88097C38.1605 9.79308 38.1226 9.6879 38.0478 9.56544C37.9729 9.44298 37.8838 9.32357 37.7804 9.20718C37.6771 9.08495 37.571 8.97446 37.462 8.8757C37.3588 8.77104 37.2728 8.68968 37.2041 8.63163L37.5437 7.22267C37.6753 7.30952 37.8098 7.42272 37.9475 7.56227C38.0907 7.6959 38.2229 7.85894 38.3438 8.05134C38.4649 8.24376 38.5461 8.44527 38.5875 8.65589C38.6345 8.86061 38.6589 9.06843 38.6603 9.27936C38.6632 9.66021 38.615 10.059 38.5156 10.4759C38.4219 10.8926 38.2433 11.3686 37.9798 11.9039C37.7219 12.4392 37.4091 12.8606 37.0414 13.1682C36.6795 13.4816 36.2566 13.6402 35.7729 13.644C35.5964 13.6454 35.3998 13.6265 35.1833 13.5872C34.9723 13.5537 34.7585 13.5026 34.5417 13.434C34.3249 13.3654 34.1165 13.285 33.9166 13.1928C33.7167 13.1006 33.5481 12.9994 33.4107 12.8892ZM42.5805 10.5669C42.2959 10.5691 42.0478 10.492 41.8359 10.3354C41.6298 10.173 41.4547 9.96341 41.3104 9.70673C41.1719 9.44414 41.0586 9.15206 40.9709 8.83047C40.8887 8.50299 40.8238 8.17829 40.7758 7.8564C40.7279 7.52864 40.6942 7.21835 40.675 6.92552C40.6614 6.63266 40.6511 6.38663 40.6439 6.18747L40.5261 1.8201L41.237 0.979516L41.2705 5.49696C41.2718 5.66102 41.2848 5.87772 41.3096 6.14706C41.3343 6.41055 41.3705 6.6798 41.418 6.95483C41.4656 7.22985 41.5216 7.49309 41.5861 7.74455C41.6505 7.99013 41.726 8.18291 41.8124 8.32286C41.9796 8.59694 42.1687 8.77709 42.38 8.86332C42.5911 8.94369 42.8219 8.98289 43.0724 8.98091L43.6018 8.97674C43.6815 8.97611 43.75 8.99901 43.8073 9.04544C43.8701 9.08595 43.9218 9.14415 43.9621 9.22001C44.0082 9.28995 44.0401 9.37173 44.0579 9.46535C44.0813 9.55892 44.0936 9.65843 44.0943 9.76389C44.095 9.86936 44.0844 9.96906 44.0624 10.063C44.0459 10.1569 44.0153 10.2421 43.9703 10.3186C43.931 10.3892 43.8803 10.4482 43.818 10.4956C43.7614 10.5371 43.6932 10.5581 43.6136 10.5587L42.5805 10.5669ZM43.0672 10.563C42.9248 10.57 42.819 10.4947 42.7495 10.337C42.6743 10.1735 42.636 9.98927 42.6344 9.78419C42.6337 9.67872 42.6414 9.57905 42.6579 9.48518C42.6742 9.39129 42.702 9.30611 42.7414 9.22962C42.7749 9.15318 42.82 9.09423 42.8766 9.05277C42.9274 9.00549 42.987 8.98158 43.0554 8.98104C43.3513 8.97872 43.5846 8.97395 43.7554 8.96675C43.926 8.95368 44.0653 8.93207 44.1733 8.90192C44.2813 8.87177 44.3691 8.83299 44.437 8.78558C44.5049 8.73231 44.5842 8.66138 44.6745 8.57277C44.7085 8.53734 44.7535 8.46668 44.8096 8.36076C44.8657 8.25485 44.9191 8.14602 44.9695 8.0343C45.0254 7.91666 45.0788 7.8137 45.1293 7.72541C45.1799 7.63712 45.2166 7.59288 45.2393 7.5927C45.2677 7.59248 45.2992 7.60395 45.3335 7.62711C45.3679 7.64442 45.3823 7.67069 45.3767 7.70588C45.3008 8.19869 45.3403 8.54408 45.4955 8.74209C45.6507 8.93423 45.9417 9.02862 46.3685 9.02525C46.619 9.02328 46.8349 8.98056 47.0165 8.8971C47.2037 8.81358 47.3622 8.7098 47.4922 8.58572C47.628 8.46161 47.7408 8.32887 47.8309 8.18753C47.9209 8.0462 47.9967 7.91376 48.0585 7.79022C48.1258 7.66664 48.182 7.56366 48.2269 7.48127C48.2775 7.39884 48.3256 7.35744 48.3712 7.35708C48.4507 7.35645 48.4851 7.38842 48.4743 7.45295C48.4525 7.58204 48.4251 7.7346 48.3923 7.91064C48.3594 8.08083 48.3433 8.21865 48.3442 8.32412C48.3446 8.39442 48.3935 8.4585 48.4907 8.51633C48.5937 8.57411 48.7107 8.62299 48.8418 8.66298C48.9731 8.70296 49.0986 8.7342 49.2182 8.7567C49.3437 8.77329 49.432 8.78138 49.4831 8.78097C49.5685 8.78031 49.6453 8.77385 49.7135 8.76158C49.7817 8.74347 49.8155 8.69633 49.8149 8.62016C49.8145 8.56742 49.8084 8.50595 49.7964 8.43573C49.7845 8.35965 49.7668 8.28362 49.7435 8.20763C49.7259 8.13159 49.7026 8.06145 49.6737 7.99722C49.6447 7.92714 49.613 7.87758 49.5787 7.84856L50.0749 6.83388C50.1149 6.86871 50.1467 6.92706 50.17 7.00892C50.1935 7.09076 50.2113 7.17851 50.2232 7.27217C50.241 7.36578 50.2503 7.45653 50.2509 7.54442C50.2573 7.63227 50.2606 7.70255 50.2611 7.75529C50.2618 7.86075 50.2542 7.99851 50.2385 8.16857C50.2283 8.33271 50.2069 8.5116 50.1741 8.70522C50.1471 8.8988 50.1059 9.09249 50.0504 9.28629C49.9949 9.48009 49.928 9.6564 49.8494 9.81524C49.7709 9.97406 49.6779 10.1037 49.5705 10.2042C49.4632 10.3046 49.3383 10.3554 49.1961 10.3565C48.9399 10.3586 48.7031 10.293 48.4858 10.16C48.2743 10.021 48.0908 9.8496 47.9356 9.64574C47.7101 9.94049 47.4727 10.165 47.2234 10.3193C46.9797 10.4736 46.7157 10.5519 46.4311 10.5541C46.249 10.5555 46.0808 10.5334 45.9268 10.4878C45.7728 10.4421 45.6329 10.3846 45.5072 10.3153C45.3814 10.246 45.267 10.1707 45.164 10.0895C45.0665 10.0023 44.9805 9.92099 44.9061 9.8454C44.7426 10.0694 44.5561 10.2437 44.3464 10.3684C44.1424 10.493 43.935 10.5562 43.7245 10.5579L43.0672 10.563Z" fill="#F5F5F5"/>
</g>
<defs>
<filter id="filter0_i_6_10" x="0.660034" y="0.416306" width="49.6011" height="17.5465" filterUnits="userSpaceOnUse" color-interpolation-filters="sRGB">
<feFlood flood-opacity="0" result="BackgroundImageFix"/>
<feBlend mode="normal" in="SourceGraphic" in2="BackgroundImageFix" result="shape"/>
<feColorMatrix in="SourceAlpha" type="matrix" values="0 0 0 0 0 0 0 0 0 0 0 0 0 0 0 0 0 0 127 0" result="hardAlpha"/>
<feOffset dy="4"/>
<feGaussianBlur stdDeviation="2"/>
<feComposite in2="hardAlpha" operator="arithmetic" k2="-1" k3="1"/>
<feColorMatrix type="matrix" values="0 0 0 0 0 0 0 0 0 0 0 0 0 0 0 0 0 0 0.25 0"/>
<feBlend mode="normal" in2="shape" result="effect1_innerShadow_6_10"/>
</filter>
</defs>
</svg>
