<svg xmlns="http://www.w3.org/2000/svg" width="72" height="41" viewBox="0 0 72 41" fill="none">
<path d="M39.8685 30C38.2898 30 36.9245 29.7333 35.7725 29.2C34.6418 28.6453 33.7672 27.8987 33.1485 26.96C32.5512 26.0213 32.2525 24.9547 32.2525 23.76C32.2525 23.312 32.3272 22.9813 32.4765 22.768C32.6258 22.5547 32.9032 22.448 33.3085 22.448C33.3938 22.448 33.5645 22.4907 33.8205 22.576C34.0765 22.64 34.2685 22.768 34.3965 22.96C34.6312 23.664 34.9298 24.3787 35.2925 25.104C35.6765 25.8293 36.1992 26.4373 36.8605 26.928C37.5432 27.4187 38.4285 27.664 39.5165 27.664C40.5618 27.664 41.5005 27.5467 42.3325 27.312C43.1645 27.056 43.8152 26.6613 44.2845 26.128C44.7752 25.5733 45.0205 24.848 45.0205 23.952C45.0205 23.2693 44.8178 22.6933 44.4125 22.224C44.0285 21.7333 43.5912 21.3493 43.1005 21.072C41.7352 20.3253 40.5298 19.696 39.4845 19.184C38.4392 18.672 37.5538 18.1813 36.8285 17.712C36.1245 17.2213 35.5805 16.6453 35.1965 15.984C34.8338 15.3013 34.6525 14.4267 34.6525 13.36C34.6525 11.7387 35.2925 10.4907 36.5725 9.616C37.8738 8.74133 39.5592 8.304 41.6285 8.304C42.1192 8.304 42.6952 8.368 43.3565 8.496C44.0392 8.60266 44.7005 8.77333 45.3405 9.008C46.0018 9.24267 46.5458 9.552 46.9725 9.936C47.3992 10.32 47.6125 10.7893 47.6125 11.344C47.6125 11.6427 47.4952 11.9093 47.2605 12.144C47.0258 12.3787 46.7485 12.496 46.4285 12.496C45.9592 12.496 45.5645 12.4107 45.2445 12.24C44.9458 12.048 44.6152 11.8347 44.2525 11.6C43.8472 11.3227 43.3778 11.0667 42.8445 10.832C42.3325 10.5973 41.6712 10.48 40.8605 10.48C40.2418 10.48 39.6445 10.5973 39.0685 10.832C38.4925 11.0453 38.0125 11.3547 37.6285 11.76C37.2658 12.1653 37.0845 12.6347 37.0845 13.168C37.0845 13.8507 37.2765 14.4373 37.6605 14.928C38.0445 15.4187 38.5032 15.8453 39.0365 16.208C39.2925 16.3573 39.5698 16.5173 39.8685 16.688C40.1672 16.8373 40.4765 16.9973 40.7965 17.168C41.0952 17.3173 41.4045 17.4667 41.7245 17.616C42.0658 17.7653 42.3965 17.9253 42.7165 18.096C43.6125 18.5227 44.4232 18.992 45.1485 19.504C45.8952 20.016 46.4925 20.624 46.9405 21.328C47.3885 22.032 47.6125 22.9067 47.6125 23.952C47.6125 25.232 47.2392 26.3307 46.4925 27.248C45.7458 28.144 44.7858 28.8267 43.6125 29.296C42.4392 29.7653 41.1912 30 39.8685 30ZM52.252 29.84C51.7187 29.84 51.4093 29.648 51.324 29.264C51.26 28.88 51.228 28.4533 51.228 27.984V27.472L51.292 27.024C51.3133 26.896 51.3453 26.7467 51.388 26.576C51.4307 26.4053 51.4627 26.2453 51.484 26.096C51.5267 25.776 51.5693 25.4773 51.612 25.2C51.676 24.9013 51.7187 24.6773 51.74 24.528C51.7827 24.208 51.836 23.696 51.9 22.992C51.9853 22.288 52.06 21.5307 52.124 20.72C52.2093 19.888 52.2733 19.1307 52.316 18.448C52.38 17.7653 52.412 17.296 52.412 17.04C52.412 16.912 52.4227 16.592 52.444 16.08C52.4653 15.5467 52.4867 14.9707 52.508 14.352C52.5293 13.712 52.5507 13.136 52.572 12.624C52.5933 12.112 52.604 11.792 52.604 11.664C52.604 11.344 52.6253 10.992 52.668 10.608C52.7107 10.2027 52.828 9.85067 53.02 9.552C53.212 9.25333 53.5213 9.104 53.948 9.104C54.2467 9.104 54.556 9.296 54.876 9.68C55.2173 10.0427 55.4627 10.3413 55.612 10.576C55.6973 10.7253 55.772 10.864 55.836 10.992C55.9213 11.0987 55.996 11.2053 56.06 11.312C56.7427 12.4213 57.4787 13.584 58.268 14.8C59.0787 16.016 59.8573 17.2427 60.604 18.48C60.9667 19.0773 61.4253 19.7813 61.98 20.592C62.556 21.3813 63.132 22.1707 63.708 22.96C64.3053 23.728 64.828 24.3893 65.276 24.944C65.66 25.4347 65.98 25.68 66.236 25.68C66.4707 25.68 66.652 25.392 66.78 24.816C67.0787 23.28 67.324 21.552 67.516 19.632C67.708 17.6907 67.804 15.8133 67.804 14C67.804 13.2107 67.7827 12.464 67.74 11.76C67.6973 11.0347 67.6333 10.3733 67.548 9.776C67.5053 9.41333 67.6013 9.136 67.836 8.944C68.092 8.73067 68.3907 8.624 68.732 8.624C69.1373 8.624 69.4147 8.67733 69.564 8.784C69.7347 8.89067 69.852 9.072 69.916 9.328C70.044 9.904 70.1293 10.608 70.172 11.44C70.2147 12.272 70.236 13.0613 70.236 13.808C70.236 16.7307 70.14 19.3013 69.948 21.52C69.756 23.7173 69.3827 25.4347 68.828 26.672C68.2733 27.888 67.452 28.496 66.364 28.496C65.7667 28.496 65.18 28.2933 64.604 27.888C64.028 27.4613 63.484 26.9493 62.972 26.352C62.4813 25.7547 62.044 25.168 61.66 24.592C60.4653 22.8 59.484 21.3173 58.716 20.144C57.9693 18.9493 57.3613 18 56.892 17.296C56.444 16.592 56.1027 16.0693 55.868 15.728C55.6333 15.3653 55.452 15.1307 55.324 15.024C55.2173 14.9173 55.1 14.864 54.972 14.864C54.972 15.2053 54.9507 15.7387 54.908 16.464C54.8867 17.168 54.844 17.9893 54.78 18.928C54.716 19.8667 54.6413 20.8267 54.556 21.808C54.4707 22.7893 54.3747 23.728 54.268 24.624C54.1613 25.4987 54.0547 26.2347 53.948 26.832C53.884 27.152 53.7987 27.5573 53.692 28.048C53.5853 28.5173 53.4147 28.9333 53.18 29.296C52.9667 29.6587 52.6573 29.84 52.252 29.84Z" fill="black"/>
<path d="M17.2069 35C27.594 33.4366 34.6978 22.4234 29.1637 11.4505C22.3252 -2.10733 -0.62074 7.68922 1.19581 22.5488C2.38758 32.2953 17.6781 35.2063 20.2686 24.8496C20.7265 23.0179 20.535 14.4501 18.2882 13.8379C18.0784 13.7803 15.3924 16.8191 14.2087 16.8191C13.279 16.8191 11.2086 11.8367 9.01521 16.8191" stroke="black" stroke-opacity="0.9" stroke-linecap="round" stroke-linejoin="round"/>
<div xmlns="" id="coplmfnphahpcknbchcehdikbdieognn" style="all: initial; font-size: 16px !important"/></svg>