<svg width="126" height="138" viewBox="0 0 126 138" fill="none" xmlns="http://www.w3.org/2000/svg">
<g clip-path="url(#clip0_5_6)">
<path d="M41.415 66.638C41.415 67.654 41.122 69.39 42.621 69.39C43.635 69.39 45.145 68.037 45.203 66.982C45.265 65.875 45.041 64.574 43.654 64.574C42.904 64.574 41.057 64.256 40.726 64.918M76.202 63.541C76.202 65.768 75.913 67.317 78.767 66.561C80.82 66.019 83.436 64.364 83.436 61.993C83.436 59.224 81.101 59.413 78.958 59.413C76.889 59.413 77.58 61.96 77.58 63.541M24.537 86.593C30.682 92.172 36.278 98.044 44.209 101.158C49.42 103.205 55.301 102.764 60.779 102.764C67.156 102.764 72.485 100.923 77.963 97.68C88.004 91.734 98.735 83.23 104.522 72.87C106.994 68.444 107.62 64.203 108.579 59.413" stroke="#999999" stroke-width="5" stroke-miterlimit="10" stroke-linecap="round"/>
<path d="M47.084 36.922C35.57 36.922 28.438 39.099 19.85 47.626C9.976 57.432 4.78599 69.445 3.22999 83.019C1.74499 95.976 2.04899 107.71 11.267 117.63C25.85 133.321 50.781 136.794 71.119 134.896C88.897 133.236 107.063 122.271 115.52 106.105C125.151 87.696 125.797 62.476 118.563 43.251C114.57 32.64 107.572 23.551 99.055 16.14C89.728 8.025 78.284 5.146 66.241 3.639C49.826 1.585 32.285 2.176 17.588 10.202" stroke="#999999" stroke-width="5" stroke-miterlimit="10" stroke-linecap="round"/>
</g>
<defs>
<clipPath id="clip0_5_6">
<rect width="126" height="138" fill="white"/>
</clipPath>
</defs>
</svg>
