<svg width="400" height="400" viewBox="0 0 141 136" fill="none" xmlns="http://www.w3.org/2000/svg">
<path d="M116.014 69.5269C117.253 97.1133 95.8946 120.481 68.3082 121.721C40.7218 122.96 17.3539 101.602 16.1145 74.0151C14.8751 46.4287 36.2335 23.0609 63.8199 21.8215C91.4063 20.5821 114.774 41.9404 116.014 69.5269Z" fill="#FDB45A"/>
<path d="M119.014 69.4731C120.254 97.0595 120.761 116.943 93.1743 118.182C65.5879 119.422 63.0346 149.181 61.7952 121.594C60.5558 94.0078 60.0882 86.1348 87.6746 84.8954C115.261 83.656 117.775 41.8867 119.014 69.4731Z" fill="#9C5300"/>
<path d="M68.8648 11.5848C70.1042 39.1712 70.6114 59.0542 43.025 60.2936C15.4386 61.5331 12.8859 91.2919 11.6465 63.7054C10.4071 36.119 9.93902 28.2463 37.5254 27.0069C65.1118 25.7675 67.6254 -16.0016 68.8648 11.5848Z" fill="#9C5300"/>
<path d="M70.8698 120.075C43.3781 122.673 18.9852 102.493 16.3869 75.0015C13.7887 47.5098 33.969 23.117 61.4607 20.5188C88.9525 17.9205 113.345 38.1007 115.943 65.5924C118.542 93.0841 98.3615 117.477 70.8698 120.075Z" fill="#FCE9CC"/>
<path d="M71.0714 123.069C43.5797 125.668 23.7455 127.155 21.1472 99.6629C18.549 72.1711 -11.2996 71.0884 16.1922 68.4902C43.6839 65.8919 51.5242 65.0366 54.1225 92.5284C56.7207 120.02 98.5632 120.471 71.0714 123.069Z" fill="#9C5300"/>
<path d="M126.416 70.1264C98.9246 72.7246 79.0908 74.2116 76.4925 46.7199C73.8943 19.2282 44.0458 18.1461 71.5376 15.5478C99.0293 12.9496 106.869 12.0939 109.468 39.5856C112.066 67.0773 153.908 67.5281 126.416 70.1264Z" fill="#9C5300"/>
<path d="M70.8651 120.025C43.4009 122.621 19.0324 102.461 16.4367 74.9968C16.231 72.8206 16.1682 70.6638 16.2406 68.5358L16.532 68.5083C23.2544 67.8728 28.7884 67.3497 33.3516 67.334C37.9907 67.318 41.6198 67.8266 44.4698 69.2701C50.1643 72.1544 52.7734 78.7854 54.0727 92.5331C55.3745 106.307 66.5079 113.304 73.8574 117.178C74.6939 117.619 75.4805 118.019 76.1982 118.384C76.6113 118.594 77.0015 118.793 77.3654 118.981C75.2516 119.464 73.0822 119.816 70.8651 120.025ZM16.2442 68.435C17.1326 43.78 36.1667 23.0044 61.376 20.5771C61.7586 20.9608 62.2044 21.3787 62.6973 21.8355C62.8169 21.9463 62.9394 22.0595 63.0645 22.1752C67.4876 26.2641 75.1812 33.3765 76.4428 46.7246C77.0929 53.6032 78.8215 58.6744 81.4827 62.3698C84.1444 66.0661 87.7361 68.382 92.1044 69.7546C96.4716 71.1268 101.615 71.5565 107.384 71.4813C110.154 71.4451 113.07 71.2924 116.113 71.0715C115.786 94.0013 99.7535 113.787 77.5159 118.946C77.1216 118.742 76.6948 118.525 76.2409 118.294C75.523 117.929 74.737 117.529 73.904 117.09C66.5557 113.216 55.4687 106.241 54.1722 92.5236C52.8733 78.7795 50.2631 72.0923 44.515 69.1809C41.6437 67.7266 37.9955 67.218 33.3513 67.234C28.7835 67.2497 23.2455 67.7732 16.5265 68.4084L16.2442 68.435ZM62.7653 21.7621C62.2963 21.3275 61.872 20.9299 61.5052 20.5648C88.9532 17.9924 113.299 38.1461 115.894 65.5971C116.064 67.4036 116.137 69.1968 116.115 70.9712C113.07 71.1923 110.153 71.3451 107.382 71.3813C101.619 71.4565 96.4869 71.0268 92.1344 69.6592C87.783 68.2919 84.2108 65.9872 81.5638 62.3114C78.9163 58.6348 77.1913 53.5825 76.5423 46.7152C75.2772 33.3287 67.5592 26.194 63.1337 22.103C63.0082 21.987 62.8853 21.8734 62.7653 21.7621ZM77.5026 119.052C77.8444 119.229 78.1616 119.397 78.4509 119.557C79.028 119.875 79.4908 120.157 79.8149 120.411C79.9769 120.538 80.1027 120.657 80.1906 120.768C80.2786 120.88 80.3262 120.981 80.3369 121.073C80.3575 121.25 80.2426 121.424 79.9152 121.598C79.5899 121.771 79.0724 121.933 78.3325 122.09C76.8538 122.404 74.5033 122.695 71.0667 123.02C64.1934 123.669 57.8011 124.249 52.0374 124.324C46.2736 124.4 41.1418 123.97 36.7893 122.602C32.4378 121.235 28.8656 118.93 26.2186 115.254C23.571 111.578 21.846 106.525 21.197 99.6582C19.9319 86.2718 12.214 79.137 7.78849 75.0458C7.66292 74.9297 7.53999 74.8161 7.41994 74.7048C6.33081 73.6954 5.48335 72.8862 5.03507 72.2186C4.8111 71.885 4.69112 71.5928 4.68607 71.3333C4.68108 71.077 4.78805 70.8449 5.03581 70.6287C5.28535 70.4109 5.67628 70.2107 6.234 70.0233C6.79102 69.8362 7.51066 69.663 8.4144 69.4972C10.2119 69.1675 12.7326 68.868 16.1402 68.5453C16.0684 70.6734 16.1315 72.8301 16.3372 75.0062C18.938 102.525 43.3553 122.726 70.8745 120.125C73.1362 119.911 75.3484 119.55 77.5026 119.052ZM61.4136 20.473C60.9717 20.0279 60.6194 19.6318 60.3804 19.276C60.1565 18.9424 60.0365 18.6503 60.0314 18.3908C60.0265 18.1345 60.1334 17.9025 60.3812 17.6862C60.6307 17.4685 61.0217 17.2683 61.5794 17.0809C62.1364 16.8938 62.856 16.7206 63.7598 16.5548C65.5673 16.2233 68.1059 15.9224 71.5423 15.5976L71.8787 15.5658C78.6005 14.9304 84.1341 14.4073 88.697 14.3916C93.3361 14.3755 96.965 14.8841 99.815 16.3276C105.51 19.2118 108.118 25.8427 109.418 39.5903C110.72 53.3644 121.853 60.361 129.202 64.2353C130.039 64.6763 130.826 65.0763 131.543 65.4414C132.404 65.8792 133.166 66.2667 133.796 66.6139C134.373 66.9319 134.836 67.2142 135.16 67.4682C135.322 67.5952 135.448 67.714 135.536 67.8253C135.624 67.9368 135.671 68.0379 135.682 68.13C135.702 68.3068 135.588 68.4809 135.26 68.6548C134.935 68.8276 134.417 68.9896 133.677 69.1468C132.199 69.4608 129.848 69.7518 126.412 70.0766C122.879 70.4105 119.473 70.7259 116.215 70.9639C116.236 69.1888 116.164 67.3949 115.993 65.5877C113.392 38.0685 88.9752 17.8681 61.456 20.469C61.4419 20.4703 61.4277 20.4717 61.4136 20.473Z" stroke="#C8D9F5" stroke-width="0.1"/>
<g clip-path="url(#clip0_16_137)">
<path d="M73.8718 94.9832L76.3231 80.109L59.7771 73.5644L57.3258 96.1731L73.8718 94.9832Z" fill="#C29674"/>
<path d="M79 120C72 122 73.9386 120.635 71 121.714C68.0613 122.794 65.5 122.071 62 121.714C58.9585 122.247 70.916 122.025 67.7934 122.025C63.5749 122.025 59.3807 121.534 55.3246 120.561C53.7363 120.183 52.1344 119.721 50.5596 119.182C50.3945 119.125 50.2268 119.067 50.0617 119.009C48.108 118.321 46.1868 117.514 44.3387 116.603C44.0898 116.482 43.8408 116.358 43.5919 116.227C43.3159 116.09 43.0426 115.946 42.7666 115.796C42.4148 115.61 42.0658 115.415 41.7167 115.218C40.5478 114.561 39.3978 113.852 38.2992 113.114L38.2261 113.067C38.1612 113.022 38.0962 112.98 38.034 112.935C38.0746 112.728 38.1125 112.538 38.1476 112.37C38.2829 111.711 38.3722 111.349 38.3722 111.349L45.7809 96.4896L47.8456 92.3494L48.8522 91.9474L56.4557 88.9132H75.0398L80.9034 91.267C80.9034 91.267 80.9332 91.3748 80.9927 91.5823C81.5772 93.6183 84.387 104.616 88.5 116.603C80.9927 119.009 86 118 79 120Z" fill="#ECD5C3"/>
<path d="M69.6905 84.8905C79.0092 84.8905 86.5635 77.5563 86.5635 68.509C86.5635 59.4617 79.0092 52.1274 69.6905 52.1274C60.3718 52.1274 52.8175 59.4617 52.8175 68.509C52.8175 77.5563 60.3718 84.8905 69.6905 84.8905Z" fill="#C29674"/>
<path d="M48.8817 91.8063L48.8526 91.9473L43.7085 115.694L43.6639 115.9L43.5923 116.227C43.3154 116.09 43.0424 115.945 42.7675 115.797C42.4151 115.609 42.0667 115.415 41.7162 115.218C40.5488 114.562 39.3987 113.851 38.299 113.115L38.2254 113.066C38.1616 113.023 38.0957 112.979 38.0338 112.936C37.1935 112.366 36.3745 111.773 35.5749 111.16C35.5691 111.156 35.5653 111.152 35.5594 111.147C34.1325 110.03 32.7579 108.829 31.4433 107.553C30.5953 106.729 29.7802 105.882 29 105.011L29.1181 104.53L29.1297 104.481L29.2768 103.868C30.5856 98.5018 35.0135 94.3834 40.5913 93.3458L48.0027 91.968L48.8817 91.8063Z" fill="#ECD5C3"/>
<path d="M99 109C96.8163 110.805 97.5 110.5 94.5 113C93.5 113.833 93.0498 114.412 92 115C90.9501 115.589 91.0114 115.244 89.5 116C87.5 117 87.633 116.462 86.1637 117L80.2405 91.443L80.9927 91.5823L88.5314 92.9851C94.1082 94.0229 98.5377 98.1421 99.8446 103.509L101.43 107L99 109Z" fill="#ECD5C3"/>
<path d="M89.1212 72.888C88.6828 74.4748 86.4776 81.5653 80.8303 83.0574C79.721 83.3517 77.0746 83.6906 77.7754 83.0574C77.935 82.913 78.0893 82.7711 78.2435 82.6318C84.3724 77.0362 86.8726 73.6158 85.7307 66.0235C85.0055 61.1895 76.7472 56.7997 72.1011 56.3636C70.1421 56.1799 67.6418 56.8233 65.9913 58.4811C63.2664 61.2131 63.7156 69.599 62.2057 74.5248C61.7999 75.8435 61.256 76.9153 60.4739 77.5641C59.9869 77.9687 59.6757 77.4538 59.4457 76.6105C58.956 74.8188 58.8288 71.5378 58.1334 72.4649C56.1229 75.1526 58.0386 78.7148 58.6177 80.0888C58.7368 80.37 58.8585 80.6404 58.9803 80.898V80.9006C59.0506 81.0476 59.1237 81.1948 59.1941 81.3341V81.3367C61.126 85.1616 63.4477 86.5303 65.4934 88.9132C66.297 89.8457 67.0574 90.9307 67.7366 92.381C68.202 93.3741 68.5375 94.3723 68.7675 95.3521C69.9391 100.265 68.5483 104.728 68.1722 105.942C67.3848 108.469 66.0318 112.812 62.0623 115.263C57.078 118.342 52.5295 115.628 50.3539 118.552C50.3268 118.586 50.3025 118.62 50.2782 118.654C50.197 118.773 50.1239 118.891 50.0617 119.009C48.108 118.321 46.1868 117.514 44.3387 116.603C44.0898 116.482 43.8408 116.358 43.5919 116.227C43.3159 116.09 43.0426 115.946 42.7666 115.796C42.7558 115.591 42.7449 115.386 42.7368 115.179C42.5772 111.624 42.818 107.718 43.7299 103.822C44.3144 101.334 44.8935 98.8671 45.7809 96.4896C46.36 94.9398 47.0689 93.4264 48.0025 91.9684C48.7494 90.7967 49.6368 89.6592 50.7138 88.5663C53.0788 86.1678 55.1813 85.167 55.5141 82.6343C55.9902 79.0195 52.1128 77.932 50.7138 72.4649C49.7586 68.7267 48.7601 63.3386 49.7288 59.7079C50.6435 56.2771 51.439 53.3006 54.0935 50.3844C54.732 49.6855 59.9734 44.8254 66.0454 44.0268C68.8432 43.6617 71.3381 47.14 74.7205 47.8887C78.6088 48.7478 80.8358 49.2391 83.0113 50.8546C86.6886 53.5815 87.7249 57.6589 88.6855 61.4471C89.4378 64.4105 90.4119 68.2434 89.1212 72.888Z" fill="#1A0E08"/>
</g>
<path d="M59.0001 121.5L57.0001 121H75.0001L71.5001 121.5L66.0001 122H64.5001L59.0001 121.5Z" fill="#ECD5C3" stroke="#ECD5C3" stroke-width="0.1"/>
<defs>
<clipPath id="clip0_16_137">
<rect width="103" height="100" fill="white" transform="translate(14 21)"/>
</clipPath>
</defs>
</svg>
